<svg width="37" height="37" viewBox="0 0 37 37" fill="none" xmlns="http://www.w3.org/2000/svg">
<rect width="37" height="37" rx="11" fill="#285C8C"/>
<path d="M30.7727 20.8V24.25H35V26.55H30.7727V30H27.9545V26.55H23.7273V24.25H27.9545V20.8H30.7727ZM30.784 7C31.5562 7 32.1818 7.51175 32.1818 8.14195L32.2131 18.8933C32 18.5 31.7752 18.4994 30.8152 18.5L30.7727 8.5H5.5V26L19.9129 14.713C20.1552 14.5147 20.4779 14.3953 20.8205 14.3776C21.163 14.3598 21.5017 14.4447 21.7729 14.6164L21.9039 14.7142L26.9005 18.7967C25.808 19.0684 24.7942 19.5179 23.9202 20.118C23.0463 20.7181 22.3303 21.4565 21.8155 22.2886C21.3007 23.1206 20.9976 24.0292 20.9247 24.9594C20.8517 25.8896 21.0103 26.8223 21.391 27.7011L5.39782 27.7C5.02696 27.6997 4.67143 27.5792 4.40933 27.3651C4.14722 27.151 4 26.8607 4 26.558V8.14195C4.00258 7.83993 4.15063 7.55087 4.41218 7.3372C4.67372 7.12353 5.02776 7.00241 5.39782 7H30.784ZM12.4545 11.6C13.202 11.6 13.9188 11.8423 14.4473 12.2737C14.9758 12.705 15.2727 13.29 15.2727 13.9C15.2727 14.51 14.9758 15.095 14.4473 15.5263C13.9188 15.9577 13.202 16.2 12.4545 16.2C11.7071 16.2 10.9903 15.9577 10.4618 15.5263C9.93328 15.095 9.63636 14.51 9.63636 13.9C9.63636 13.29 9.93328 12.705 10.4618 12.2737C10.9903 11.8423 11.7071 11.6 12.4545 11.6Z" fill="white"/>
</svg>
