<svg width="50" height="50" viewBox="0 0 50 50" fill="none" xmlns="http://www.w3.org/2000/svg">
<rect width="50" height="50" rx="13" fill="#00538F"/>
<path d="M28.6963 7V15.0534C28.6963 15.9688 29.1248 16.8466 29.8878 17.4939C30.6507 18.1412 31.6854 18.5048 32.7643 18.5048H42.2564V35.7621C42.2564 36.6774 41.8278 37.5553 41.0649 38.2026C40.302 38.8499 39.2673 39.2135 38.1884 39.2135H27.7823C30.6686 37.4959 32.7446 34.9665 33.642 32.0739C34.5394 29.1813 34.2002 26.1126 32.6845 23.412C31.1689 20.7114 28.5748 18.5535 25.3624 17.3212C22.1501 16.0889 18.5271 15.8618 15.1361 16.6802V10.4514C15.1361 9.53607 15.5647 8.65818 16.3276 8.01091C17.0905 7.36363 18.1252 7 19.2041 7H28.6963ZM31.4083 7.57524V15.0534C31.4083 15.3585 31.5511 15.6511 31.8054 15.8669C32.0598 16.0826 32.4047 16.2039 32.7643 16.2039H41.5784L31.4083 7.57524ZM31.4083 28.8592C31.4083 31.6053 30.1225 34.239 27.8338 36.1808C25.545 38.1226 22.4409 39.2135 19.2041 39.2135C15.9674 39.2135 12.8632 38.1226 10.5745 36.1808C8.28579 34.239 7 31.6053 7 28.8592C7 26.113 8.28579 23.4794 10.5745 21.5375C12.8632 19.5957 15.9674 18.5048 19.2041 18.5048C22.4409 18.5048 25.545 19.5957 27.8338 21.5375C30.1225 23.4794 31.4083 26.113 31.4083 28.8592V28.8592ZM20.5602 24.2572C20.5602 23.9521 20.4173 23.6595 20.163 23.4437C19.9087 23.228 19.5638 23.1067 19.2041 23.1067C18.8445 23.1067 18.4996 23.228 18.2453 23.4437C17.991 23.6595 17.8481 23.9521 17.8481 24.2572V27.7087H13.7801C13.4204 27.7087 13.0755 27.8299 12.8212 28.0456C12.5669 28.2614 12.4241 28.554 12.4241 28.8592C12.4241 29.1643 12.5669 29.4569 12.8212 29.6727C13.0755 29.8884 13.4204 30.0096 13.7801 30.0096H17.8481V33.4611C17.8481 33.7662 17.991 34.0588 18.2453 34.2746C18.4996 34.4904 18.8445 34.6116 19.2041 34.6116C19.5638 34.6116 19.9087 34.4904 20.163 34.2746C20.4173 34.0588 20.5602 33.7662 20.5602 33.4611V30.0096H24.6282C24.9878 30.0096 25.3327 29.8884 25.5871 29.6727C25.8414 29.4569 25.9842 29.1643 25.9842 28.8592C25.9842 28.554 25.8414 28.2614 25.5871 28.0456C25.3327 27.8299 24.9878 27.7087 24.6282 27.7087H20.5602V24.2572Z" fill="white"/>
</svg>
