<svg width="59" height="54" viewBox="0 0 59 54" fill="none" xmlns="http://www.w3.org/2000/svg">
<g filter="url(#filter0_d_210_162)">
<path d="M51.1 1.06556L7.3 14.1368C3.285 15.2261 0 19.0386 0 22.3064V45.9981C0 49.2659 3.285 50.8998 7.3 49.8106L51.1 36.7393C55.115 35.65 58.4 31.8375 58.4 28.5697V4.87802C58.4 1.61019 55.115 -0.0237163 51.1 1.06556ZM53.29 8.14584L31.39 33.4715L6.935 21.2171C6.57 20.9448 5.475 20.1279 6.205 19.3109C6.935 18.2216 8.76 18.7663 8.76 18.7663L31.755 25.0296C31.755 25.0296 49.275 7.87352 50.37 6.78425C50.735 6.23961 51.83 5.96729 52.925 6.51193C54.02 7.05656 53.655 7.87352 53.29 8.14584V8.14584Z" fill="white"/>
</g>
<defs>
<filter id="filter0_d_210_162" x="0" y="0.729492" width="58.3999" height="52.4171" filterUnits="userSpaceOnUse" color-interpolation-filters="sRGB">
<feFlood flood-opacity="0" result="BackgroundImageFix"/>
<feColorMatrix in="SourceAlpha" type="matrix" values="0 0 0 0 0 0 0 0 0 0 0 0 0 0 0 0 0 0 127 0" result="hardAlpha"/>
<feOffset dy="3"/>
<feComposite in2="hardAlpha" operator="out"/>
<feColorMatrix type="matrix" values="0 0 0 0 0 0 0 0 0 0.32625 0 0 0 0 0.5625 0 0 0 1 0"/>
<feBlend mode="normal" in2="BackgroundImageFix" result="effect1_dropShadow_210_162"/>
<feBlend mode="normal" in="SourceGraphic" in2="effect1_dropShadow_210_162" result="shape"/>
</filter>
</defs>
</svg>
