<svg width="40" height="40" viewBox="0 0 40 40" fill="none" xmlns="http://www.w3.org/2000/svg">
<path d="M5 8.33331H11.6667M35 8.33331H18.3333M5 20H25M35 20H31.6667M5 31.6666H8.33333M35 31.6666H15" stroke="#285C8C" stroke-width="3" stroke-linecap="round"/>
<path d="M15.0003 11.6667C16.8413 11.6667 18.3337 10.1743 18.3337 8.33333C18.3337 6.49238 16.8413 5 15.0003 5C13.1594 5 11.667 6.49238 11.667 8.33333C11.667 10.1743 13.1594 11.6667 15.0003 11.6667Z" stroke="#285C8C" stroke-width="3" stroke-linecap="round"/>
<path d="M28.3333 23.3334C30.1743 23.3334 31.6667 21.841 31.6667 20C31.6667 18.1591 30.1743 16.6667 28.3333 16.6667C26.4924 16.6667 25 18.1591 25 20C25 21.841 26.4924 23.3334 28.3333 23.3334Z" stroke="#285C8C" stroke-width="3" stroke-linecap="round"/>
<path d="M11.6663 35C13.5073 35 14.9997 33.5076 14.9997 31.6666C14.9997 29.8257 13.5073 28.3333 11.6663 28.3333C9.82539 28.3333 8.33301 29.8257 8.33301 31.6666C8.33301 33.5076 9.82539 35 11.6663 35Z" stroke="#285C8C" stroke-width="3" stroke-linecap="round"/>
</svg>
