<svg width="80" height="78" viewBox="0 0 80 78" fill="none" xmlns="http://www.w3.org/2000/svg">
<g filter="url(#filter0_d_392_2)">
<path d="M75 35C75 53.7513 59.3567 69 40 69C20.6433 69 5 53.7513 5 35C5 16.2487 20.6433 1 40 1C59.3567 1 75 16.2487 75 35Z" fill="#FFA06B" stroke="white" stroke-width="2"/>
<path d="M57.5773 53.656C56.9799 54.2533 56.1053 54.7013 54.9533 55C53.8439 55.3413 52.4999 55.512 50.9213 55.512C49.3426 55.512 47.8493 55.2773 46.4413 54.808C45.0333 54.3387 43.8813 53.208 42.9853 51.416L36.6493 38.488C36.0093 37.1653 35.4333 35.928 34.9213 34.776C34.4093 33.5813 33.8546 32.216 33.2573 30.68L32.8733 30.744C33.0439 33.048 33.1293 35.3947 33.1293 37.784C33.1719 40.1733 33.1933 42.52 33.1933 44.824V54.744C32.7239 54.872 31.9986 55 31.0173 55.128C30.0786 55.256 29.1399 55.32 28.2013 55.32C27.2626 55.32 26.4306 55.256 25.7053 55.128C24.9799 55 24.3826 54.744 23.9133 54.36C23.4439 53.976 23.0813 53.464 22.8253 52.824C22.5693 52.1413 22.4413 51.2667 22.4413 50.2V18.2C23.0386 17.3467 23.9559 16.7067 25.1933 16.28C26.4306 15.8533 27.7533 15.64 29.1613 15.64C30.7399 15.64 32.2333 15.896 33.6413 16.408C35.0919 16.8773 36.2439 17.9867 37.0972 19.736L43.4973 32.664C44.1373 33.9867 44.7133 35.2453 45.2253 36.44C45.7373 37.592 46.2919 38.936 46.8893 40.472L47.2093 40.408C47.0386 38.104 46.9319 35.8 46.8893 33.496C46.8466 31.192 46.8253 28.888 46.8253 26.584V16.216C47.2946 16.088 47.9986 15.96 48.9373 15.832C49.9186 15.704 50.8786 15.64 51.8173 15.64C53.6946 15.64 55.1239 15.9813 56.1053 16.664C57.0866 17.304 57.5773 18.6693 57.5773 20.76V53.656Z" fill="white"/>
</g>
<defs>
<filter id="filter0_d_392_2" x="0" y="0" width="80" height="78" filterUnits="userSpaceOnUse" color-interpolation-filters="sRGB">
<feFlood flood-opacity="0" result="BackgroundImageFix"/>
<feColorMatrix in="SourceAlpha" type="matrix" values="0 0 0 0 0 0 0 0 0 0 0 0 0 0 0 0 0 0 127 0" result="hardAlpha"/>
<feOffset dy="4"/>
<feGaussianBlur stdDeviation="2"/>
<feComposite in2="hardAlpha" operator="out"/>
<feColorMatrix type="matrix" values="0 0 0 0 0 0 0 0 0 0 0 0 0 0 0 0 0 0 0.25 0"/>
<feBlend mode="normal" in2="BackgroundImageFix" result="effect1_dropShadow_392_2"/>
<feBlend mode="normal" in="SourceGraphic" in2="effect1_dropShadow_392_2" result="shape"/>
</filter>
</defs>
</svg>
