<svg width="19" height="19" viewBox="0 0 19 19" fill="none" xmlns="http://www.w3.org/2000/svg">
<path d="M1.46292 3.0994L1.46296 3.09944L7.86474 9.49997L1.46296 15.9005L1.46292 15.9005C1.35548 16.008 1.27025 16.1355 1.2121 16.2759C1.15395 16.4163 1.12402 16.5668 1.12402 16.7187C1.12402 16.8707 1.15395 17.0211 1.2121 17.1615C1.27025 17.3019 1.35548 17.4295 1.46292 17.5369L1.81591 17.1839L1.46292 17.5369C1.57037 17.6443 1.69792 17.7296 1.8383 17.7877C1.97869 17.8459 2.12915 17.8758 2.2811 17.8758C2.43305 17.8758 2.58351 17.8459 2.7239 17.7877C2.86428 17.7296 2.99183 17.6443 3.09928 17.5369L3.09932 17.5369L9.49985 11.1351L15.9004 17.5369L15.9004 17.5369C16.0079 17.6443 16.1354 17.7296 16.2758 17.7877C16.4162 17.8459 16.5667 17.8758 16.7186 17.8758C16.8705 17.8758 17.021 17.8459 17.1614 17.7877C17.3018 17.7296 17.4293 17.6443 17.5368 17.5369L17.1832 17.1833L17.5368 17.5369C17.6442 17.4295 17.7295 17.3019 17.7876 17.1615C17.8458 17.0211 17.8757 16.8707 17.8757 16.7187C17.8757 16.5668 17.8458 16.4163 17.7876 16.2759C17.7295 16.1355 17.6442 16.008 17.5368 15.9005L17.5367 15.9005L11.135 9.49997L17.5367 3.09944L17.5368 3.0994C17.6442 2.99196 17.7295 2.8644 17.7876 2.72402C17.8458 2.58363 17.8757 2.43317 17.8757 2.28122C17.8757 2.12928 17.8458 1.97881 17.7876 1.83843C17.7295 1.69805 17.6442 1.57049 17.5368 1.46305L17.1838 1.81603L17.5368 1.46304C17.4293 1.3556 17.3018 1.27037 17.1614 1.21222C17.021 1.15407 16.8706 1.12415 16.7186 1.12415C16.5667 1.12415 16.4162 1.15407 16.2758 1.21222C16.1354 1.27037 16.0079 1.3556 15.9004 1.46305L15.9004 1.46308L9.49985 7.86486L3.09932 1.46308L3.09928 1.46305C2.99184 1.3556 2.86428 1.27037 2.7239 1.21222C2.58351 1.15407 2.43305 1.12415 2.2811 1.12415C2.12915 1.12415 1.97869 1.15407 1.83831 1.21222C1.69793 1.27037 1.57037 1.3556 1.46292 1.46305C1.35548 1.57049 1.27025 1.69805 1.2121 1.83843C1.15395 1.97881 1.12402 2.12927 1.12402 2.28122C1.12402 2.43317 1.15395 2.58364 1.2121 2.72402C1.27025 2.8644 1.35548 2.99196 1.46292 3.0994Z" fill="white" stroke="white"/>
</svg>
