<svg width="24" height="24" viewBox="0 0 24 24" fill="none" xmlns="http://www.w3.org/2000/svg">
<path d="M19.1999 1.31997L4.7999 7.07997C3.4799 7.55997 2.3999 9.23997 2.3999 10.68V21.12C2.3999 22.56 3.4799 23.28 4.7999 22.8L19.1999 17.04C20.5199 16.56 21.5999 14.88 21.5999 13.44V2.99997C21.5999 1.55997 20.5199 0.839966 19.1999 1.31997ZM19.9199 4.43997L12.7199 15.6L4.6799 10.2C4.5599 10.08 4.1999 9.71997 4.4399 9.35997C4.6799 8.87997 5.2799 9.11997 5.2799 9.11997L12.8399 11.88C12.8399 11.88 18.5999 4.31997 18.9599 3.83997C19.0799 3.59997 19.4399 3.47997 19.7999 3.71997C20.1599 3.95997 20.0399 4.31997 19.9199 4.43997Z" fill="white"/>
</svg>
