<svg width="51" height="51" viewBox="0 0 51 51" fill="none" xmlns="http://www.w3.org/2000/svg">
<path d="M25.5002 5.09998C22.795 5.09998 20.2006 6.17462 18.2877 8.08749C16.3748 10.0004 15.3002 12.5948 15.3002 15.3C15.3002 18.0052 16.3748 20.5996 18.2877 22.5125C20.2006 24.4253 22.795 25.5 25.5002 25.5C28.2054 25.5 30.7998 24.4253 32.7127 22.5125C34.6255 20.5996 35.7002 18.0052 35.7002 15.3C35.7002 12.5948 34.6255 10.0004 32.7127 8.08749C30.7998 6.17462 28.2054 5.09998 25.5002 5.09998ZM37.9059 42.8323C35.1749 44.574 31.6482 45.5455 27.8028 45.8184C27.6111 45.312 27.3138 44.8521 26.9307 44.4694L21.8307 39.372C22.5697 37.8276 22.9523 36.137 22.9502 34.425C22.9535 32.1551 22.2806 29.9358 21.0173 28.05H38.2502C39.6028 28.05 40.9 28.5873 41.8564 29.5437C42.8129 30.5002 43.3502 31.7974 43.3502 33.15C43.3502 37.462 41.226 40.7133 37.9059 42.8323ZM11.4752 43.35C13.4795 43.35 15.3308 42.687 16.82 41.5726L23.3225 48.0751C23.4409 48.1937 23.5814 48.2877 23.7362 48.352C23.8909 48.4162 24.0567 48.4493 24.2243 48.4494C24.3918 48.4495 24.5577 48.4166 24.7125 48.3526C24.8674 48.2886 25.0081 48.1948 25.1266 48.0764C25.2452 47.958 25.3392 47.8175 25.4034 47.6627C25.4677 47.508 25.5008 47.3421 25.5009 47.1746C25.501 47.0071 25.4681 46.8412 25.4041 46.6863C25.3401 46.5315 25.2463 46.3908 25.1279 46.2723L18.6254 39.7698C19.829 38.1602 20.4541 36.1914 20.3994 34.1823C20.3448 32.1731 19.6136 30.2413 18.3242 28.6995C17.0348 27.1577 15.2628 26.0962 13.295 25.687C11.3273 25.2777 9.27898 25.5446 7.48181 26.4445C5.68463 27.3444 4.24381 28.8245 3.39262 30.6452C2.54144 32.466 2.32973 34.5207 2.79179 36.4768C3.25384 38.4328 4.36259 40.1756 5.93853 41.423C7.51446 42.6704 9.46531 43.3494 11.4752 43.35ZM11.4752 40.8C9.78443 40.8 8.16292 40.1283 6.96738 38.9328C5.77183 37.7372 5.10018 36.1157 5.10018 34.425C5.10018 32.7342 5.77183 31.1127 6.96738 29.9172C8.16292 28.7216 9.78443 28.05 11.4752 28.05C13.1659 28.05 14.7874 28.7216 15.983 29.9172C17.1785 31.1127 17.8502 32.7342 17.8502 34.425C17.8502 36.1157 17.1785 37.7372 15.983 38.9328C14.7874 40.1283 13.1659 40.8 11.4752 40.8Z" fill="white"/>
</svg>
